<?xml version="1.0" encoding="UTF-8" standalone="no"?>
<!DOCTYPE svg PUBLIC "-//W3C//DTD SVG 1.1//EN"
 "http://www.w3.org/Graphics/SVG/1.1/DTD/svg11.dtd">
<!-- Generated by graphviz version 2.40.1 (0)
 -->
<!-- Title: %3 Pages: 1 -->
<svg width="221pt" height="302pt"
 viewBox="0.00 0.00 220.50 302.00" xmlns="http://www.w3.org/2000/svg" xmlns:xlink="http://www.w3.org/1999/xlink">
<g id="graph0" class="graph" transform="scale(1 1) rotate(0) translate(4 298)">
<title>%3</title>
<polygon fill="#ffffff" stroke="transparent" points="-4,4 -4,-298 216.5,-298 216.5,4 -4,4"/>
<!-- Bars -->
<g id="node1" class="node">
<title>Bars</title>
<g id="a_node1"><a xlink:href="bars.html" xlink:title="Bars" target="_top">
<polygon fill="none" stroke="#ffffff" points="73.5,-129 41.5,-129 41.5,-110 73.5,-110 73.5,-129"/>
<text text-anchor="middle" x="57.5" y="-115.8" font-family="Sans-Serif" font-size="14.00" fill="#000000">Bars</text>
</a>
</g>
</g>
<!-- Heatmaps -->
<g id="node6" class="node">
<title>Heatmaps</title>
<g id="a_node6"><a xlink:href="heatmaps.html" xlink:title="Heatmaps" target="_top">
<polygon fill="none" stroke="#ffffff" points="67,-74 0,-74 0,-55 67,-55 67,-74"/>
<text text-anchor="middle" x="33.5" y="-60.8" font-family="Sans-Serif" font-size="14.00" fill="#000000">Heatmaps</text>
</a>
</g>
</g>
<!-- Bars&#45;&gt;Heatmaps -->
<g id="edge4" class="edge">
<title>Bars&#45;&gt;Heatmaps</title>
<path fill="none" stroke="#000000" d="M53.3195,-109.9197C50.158,-102.6746 45.7139,-92.4903 41.835,-83.601"/>
<polygon fill="#000000" stroke="#000000" points="45.0016,-82.1064 37.7942,-74.3408 38.5858,-84.9061 45.0016,-82.1064"/>
</g>
<!-- Utilities -->
<g id="node2" class="node">
<title>Utilities</title>
<g id="a_node2"><a xlink:href="utilities.html" xlink:title="Utilities" target="_top">
<polygon fill="none" stroke="#ffffff" points="148.5,-184 100.5,-184 100.5,-165 148.5,-165 148.5,-184"/>
<text text-anchor="middle" x="124.5" y="-170.8" font-family="Sans-Serif" font-size="14.00" fill="#000000">Utilities</text>
</a>
</g>
</g>
<!-- Utilities&#45;&gt;Bars -->
<g id="edge1" class="edge">
<title>Utilities&#45;&gt;Bars</title>
<path fill="none" stroke="#000000" d="M112.8295,-164.9197C103.0546,-156.8956 88.8878,-145.2661 77.3365,-135.7837"/>
<polygon fill="#000000" stroke="#000000" points="79.438,-132.9805 69.4879,-129.3408 74.9965,-138.3911 79.438,-132.9805"/>
</g>
<!-- Distributions -->
<g id="node5" class="node">
<title>Distributions</title>
<g id="a_node5"><a xlink:href="distributions.html" xlink:title="Distributions" target="_top">
<polygon fill="none" stroke="#ffffff" points="164,-74 85,-74 85,-55 164,-55 164,-74"/>
<text text-anchor="middle" x="124.5" y="-60.8" font-family="Sans-Serif" font-size="14.00" fill="#000000">Distributions</text>
</a>
</g>
</g>
<!-- Utilities&#45;&gt;Distributions -->
<g id="edge3" class="edge">
<title>Utilities&#45;&gt;Distributions</title>
<path fill="none" stroke="#000000" d="M124.5,-164.7382C124.5,-146.7541 124.5,-108.0652 124.5,-84.3599"/>
<polygon fill="#000000" stroke="#000000" points="128.0001,-84.0828 124.5,-74.0828 121.0001,-84.0829 128.0001,-84.0828"/>
</g>
<!-- Scatters -->
<g id="node7" class="node">
<title>Scatters</title>
<g id="a_node7"><a xlink:href="scatters.html" xlink:title="Scatters" target="_top">
<polygon fill="none" stroke="#ffffff" points="212.5,-129 158.5,-129 158.5,-110 212.5,-110 212.5,-129"/>
<text text-anchor="middle" x="185.5" y="-115.8" font-family="Sans-Serif" font-size="14.00" fill="#000000">Scatters</text>
</a>
</g>
</g>
<!-- Utilities&#45;&gt;Scatters -->
<g id="edge5" class="edge">
<title>Utilities&#45;&gt;Scatters</title>
<path fill="none" stroke="#000000" d="M135.1254,-164.9197C143.9385,-156.9735 156.673,-145.4916 167.1329,-136.0605"/>
<polygon fill="#000000" stroke="#000000" points="169.5025,-138.6367 174.5856,-129.3408 164.815,-133.4378 169.5025,-138.6367"/>
</g>
<!-- Common -->
<g id="node3" class="node">
<title>Common</title>
<g id="a_node3"><a xlink:href="common.html" xlink:title="Common" target="_top">
<polygon fill="none" stroke="#ffffff" points="155,-239 94,-239 94,-220 155,-220 155,-239"/>
<text text-anchor="middle" x="124.5" y="-225.8" font-family="Sans-Serif" font-size="14.00" fill="#000000">Common</text>
</a>
</g>
</g>
<!-- Common&#45;&gt;Utilities -->
<g id="edge9" class="edge">
<title>Common&#45;&gt;Utilities</title>
<path fill="none" stroke="#000000" d="M124.5,-219.9197C124.5,-212.9083 124.5,-203.1442 124.5,-194.4652"/>
<polygon fill="#000000" stroke="#000000" points="128.0001,-194.3408 124.5,-184.3408 121.0001,-194.3409 128.0001,-194.3408"/>
</g>
<!-- Validations -->
<g id="node4" class="node">
<title>Validations</title>
<g id="a_node4"><a xlink:href="validations.html" xlink:title="Validations" target="_top">
<polygon fill="none" stroke="#ffffff" points="159.5,-294 89.5,-294 89.5,-275 159.5,-275 159.5,-294"/>
<text text-anchor="middle" x="124.5" y="-280.8" font-family="Sans-Serif" font-size="14.00" fill="#000000">Validations</text>
</a>
</g>
</g>
<!-- Validations&#45;&gt;Common -->
<g id="edge2" class="edge">
<title>Validations&#45;&gt;Common</title>
<path fill="none" stroke="#000000" d="M124.5,-274.9197C124.5,-267.9083 124.5,-258.1442 124.5,-249.4652"/>
<polygon fill="#000000" stroke="#000000" points="128.0001,-249.3408 124.5,-239.3408 121.0001,-249.3409 128.0001,-249.3408"/>
</g>
<!-- Sources -->
<g id="node8" class="node">
<title>Sources</title>
<g id="a_node8"><a xlink:href="sources.html" xlink:title="Sources" target="_top">
<polygon fill="none" stroke="#ffffff" points="151.5,-19 97.5,-19 97.5,0 151.5,0 151.5,-19"/>
<text text-anchor="middle" x="124.5" y="-5.8" font-family="Sans-Serif" font-size="14.00" fill="#000000">Sources</text>
</a>
</g>
</g>
<!-- Distributions&#45;&gt;Sources -->
<g id="edge6" class="edge">
<title>Distributions&#45;&gt;Sources</title>
<path fill="none" stroke="#000000" d="M124.5,-54.9197C124.5,-47.9083 124.5,-38.1442 124.5,-29.4652"/>
<polygon fill="#000000" stroke="#000000" points="128.0001,-29.3408 124.5,-19.3408 121.0001,-29.3409 128.0001,-29.3408"/>
</g>
<!-- Heatmaps&#45;&gt;Sources -->
<g id="edge7" class="edge">
<title>Heatmaps&#45;&gt;Sources</title>
<path fill="none" stroke="#000000" d="M49.351,-54.9197C63.2281,-46.5325 83.6223,-34.2063 99.6648,-24.5103"/>
<polygon fill="#000000" stroke="#000000" points="101.7774,-27.3231 108.5253,-19.155 98.1566,-21.3323 101.7774,-27.3231"/>
</g>
<!-- Scatters&#45;&gt;Sources -->
<g id="edge8" class="edge">
<title>Scatters&#45;&gt;Sources</title>
<path fill="none" stroke="#000000" d="M185.3371,-109.6936C184.7294,-96.4802 182.2357,-72.5901 172.5,-55 166.1352,-43.5002 155.8653,-33.1874 146.4552,-25.2993"/>
<polygon fill="#000000" stroke="#000000" points="148.5398,-22.4856 138.5269,-19.0226 144.1948,-27.9739 148.5398,-22.4856"/>
</g>
</g>
</svg>
